<svg id="visual" viewBox="0 0 960 540" width="960" height="540" xmlns="http://www.w3.org/2000/svg" xmlns:xlink="http://www.w3.org/1999/xlink" version="1.1"><rect x="0" y="0" width="960" height="540" fill="#1D3557"></rect><defs><linearGradient id="grad1_0" x1="43.8%" y1="100%" x2="100%" y2="0%"><stop offset="14.444444444444446%" stop-color="#2a4c7d" stop-opacity="1"></stop><stop offset="85.55555555555554%" stop-color="#2a4c7d" stop-opacity="1"></stop></linearGradient></defs><defs><linearGradient id="grad1_1" x1="43.8%" y1="100%" x2="100%" y2="0%"><stop offset="14.444444444444446%" stop-color="#2a4c7d" stop-opacity="1"></stop><stop offset="85.55555555555554%" stop-color="#284977" stop-opacity="1"></stop></linearGradient></defs><defs><linearGradient id="grad1_2" x1="43.8%" y1="100%" x2="100%" y2="0%"><stop offset="14.444444444444446%" stop-color="#264572" stop-opacity="1"></stop><stop offset="85.55555555555554%" stop-color="#284977" stop-opacity="1"></stop></linearGradient></defs><defs><linearGradient id="grad1_3" x1="43.8%" y1="100%" x2="100%" y2="0%"><stop offset="14.444444444444446%" stop-color="#264572" stop-opacity="1"></stop><stop offset="85.55555555555554%" stop-color="#24426c" stop-opacity="1"></stop></linearGradient></defs><defs><linearGradient id="grad1_4" x1="43.8%" y1="100%" x2="100%" y2="0%"><stop offset="14.444444444444446%" stop-color="#223f67" stop-opacity="1"></stop><stop offset="85.55555555555554%" stop-color="#24426c" stop-opacity="1"></stop></linearGradient></defs><defs><linearGradient id="grad1_5" x1="43.8%" y1="100%" x2="100%" y2="0%"><stop offset="14.444444444444446%" stop-color="#223f67" stop-opacity="1"></stop><stop offset="85.55555555555554%" stop-color="#213b62" stop-opacity="1"></stop></linearGradient></defs><defs><linearGradient id="grad1_6" x1="43.8%" y1="100%" x2="100%" y2="0%"><stop offset="14.444444444444446%" stop-color="#1f385c" stop-opacity="1"></stop><stop offset="85.55555555555554%" stop-color="#213b62" stop-opacity="1"></stop></linearGradient></defs><defs><linearGradient id="grad1_7" x1="43.8%" y1="100%" x2="100%" y2="0%"><stop offset="14.444444444444446%" stop-color="#1f385c" stop-opacity="1"></stop><stop offset="85.55555555555554%" stop-color="#1d3557" stop-opacity="1"></stop></linearGradient></defs><defs><linearGradient id="grad2_0" x1="0%" y1="100%" x2="56.3%" y2="0%"><stop offset="14.444444444444446%" stop-color="#2a4c7d" stop-opacity="1"></stop><stop offset="85.55555555555554%" stop-color="#2a4c7d" stop-opacity="1"></stop></linearGradient></defs><defs><linearGradient id="grad2_1" x1="0%" y1="100%" x2="56.3%" y2="0%"><stop offset="14.444444444444446%" stop-color="#284977" stop-opacity="1"></stop><stop offset="85.55555555555554%" stop-color="#2a4c7d" stop-opacity="1"></stop></linearGradient></defs><defs><linearGradient id="grad2_2" x1="0%" y1="100%" x2="56.3%" y2="0%"><stop offset="14.444444444444446%" stop-color="#284977" stop-opacity="1"></stop><stop offset="85.55555555555554%" stop-color="#264572" stop-opacity="1"></stop></linearGradient></defs><defs><linearGradient id="grad2_3" x1="0%" y1="100%" x2="56.3%" y2="0%"><stop offset="14.444444444444446%" stop-color="#24426c" stop-opacity="1"></stop><stop offset="85.55555555555554%" stop-color="#264572" stop-opacity="1"></stop></linearGradient></defs><defs><linearGradient id="grad2_4" x1="0%" y1="100%" x2="56.3%" y2="0%"><stop offset="14.444444444444446%" stop-color="#24426c" stop-opacity="1"></stop><stop offset="85.55555555555554%" stop-color="#223f67" stop-opacity="1"></stop></linearGradient></defs><defs><linearGradient id="grad2_5" x1="0%" y1="100%" x2="56.3%" y2="0%"><stop offset="14.444444444444446%" stop-color="#213b62" stop-opacity="1"></stop><stop offset="85.55555555555554%" stop-color="#223f67" stop-opacity="1"></stop></linearGradient></defs><defs><linearGradient id="grad2_6" x1="0%" y1="100%" x2="56.3%" y2="0%"><stop offset="14.444444444444446%" stop-color="#213b62" stop-opacity="1"></stop><stop offset="85.55555555555554%" stop-color="#1f385c" stop-opacity="1"></stop></linearGradient></defs><defs><linearGradient id="grad2_7" x1="0%" y1="100%" x2="56.3%" y2="0%"><stop offset="14.444444444444446%" stop-color="#1d3557" stop-opacity="1"></stop><stop offset="85.55555555555554%" stop-color="#1f385c" stop-opacity="1"></stop></linearGradient></defs><g transform="translate(960, 540)"><path d="M-250 0C-240.9 -8.7 -231.8 -17.5 -252.4 -36.3C-273 -55.1 -323.5 -84 -311.8 -91.6C-300.2 -99.1 -226.6 -85.4 -216.5 -98.9C-206.4 -112.4 -259.8 -153.2 -275.1 -176.8C-290.3 -200.4 -267.4 -206.8 -253.9 -220C-240.5 -233.3 -236.6 -253.4 -215.4 -248.6C-194.3 -243.9 -156 -214.4 -142.2 -221.2C-128.4 -228.1 -139.2 -271.5 -136.3 -298.4C-133.3 -325.2 -116.6 -335.6 -98.9 -336.8C-81.1 -338 -62.3 -330.1 -45.7 -317.7C-29 -305.4 -14.5 -288.7 0 -272L0 0Z" fill="#1e375a"></path><path d="M-218.7 0C-210.8 -7.6 -202.8 -15.3 -220.9 -31.8C-238.9 -48.2 -283 -73.5 -272.9 -80.1C-262.7 -86.7 -198.3 -74.7 -189.4 -86.5C-180.6 -98.3 -227.4 -134 -240.7 -154.7C-254 -175.3 -233.9 -180.9 -222.2 -192.5C-210.4 -204.1 -207 -221.7 -188.5 -217.6C-170 -213.4 -136.5 -187.6 -124.4 -193.6C-112.4 -199.6 -121.8 -237.6 -119.2 -261.1C-116.6 -284.6 -102.1 -293.6 -86.5 -294.7C-71 -295.7 -54.5 -288.8 -40 -278C-25.4 -267.2 -12.7 -252.6 0 -238L0 0Z" fill="#203a5f"></path><path d="M-187.5 0C-180.7 -6.6 -173.8 -13.1 -189.3 -27.2C-204.8 -41.3 -242.6 -63 -233.9 -68.7C-225.2 -74.3 -169.9 -64 -162.4 -74.2C-154.8 -84.3 -194.9 -114.9 -206.3 -132.6C-217.7 -150.3 -200.5 -155.1 -190.4 -165C-180.4 -175 -177.4 -190 -161.6 -186.5C-145.7 -182.9 -117 -160.8 -106.6 -165.9C-96.3 -171.1 -104.4 -203.6 -102.2 -223.8C-100 -243.9 -87.5 -251.7 -74.2 -252.6C-60.9 -253.5 -46.8 -247.5 -34.3 -238.3C-21.8 -229.1 -10.9 -216.5 0 -204L0 0Z" fill="#213d64"></path><path d="M-156.2 0C-150.6 -5.5 -144.9 -10.9 -157.8 -22.7C-170.7 -34.4 -202.2 -52.5 -194.9 -57.2C-187.6 -62 -141.6 -53.3 -135.3 -61.8C-129 -70.2 -162.4 -95.7 -171.9 -110.5C-181.5 -125.2 -167.1 -129.2 -158.7 -137.5C-150.3 -145.8 -147.9 -158.4 -134.7 -155.4C-121.4 -152.4 -97.5 -134 -88.9 -138.3C-80.3 -142.6 -87 -169.7 -85.2 -186.5C-83.3 -203.3 -72.9 -209.7 -61.8 -210.5C-50.7 -211.2 -39 -206.3 -28.6 -198.6C-18.1 -190.9 -9.1 -180.4 0 -170L0 0Z" fill="#23406a"></path><path d="M-125 0C-120.4 -4.4 -115.9 -8.7 -126.2 -18.1C-136.5 -27.6 -161.7 -42 -155.9 -45.8C-150.1 -49.6 -113.3 -42.7 -108.2 -49.4C-103.2 -56.2 -129.9 -76.6 -137.5 -88.4C-145.2 -100.2 -133.7 -103.4 -127 -110C-120.2 -116.6 -118.3 -126.7 -107.7 -124.3C-97.2 -122 -78 -107.2 -71.1 -110.6C-64.2 -114.1 -69.6 -135.8 -68.1 -149.2C-66.7 -162.6 -58.3 -167.8 -49.4 -168.4C-40.6 -169 -31.2 -165 -22.8 -158.9C-14.5 -152.7 -7.3 -144.4 0 -136L0 0Z" fill="#25446f"></path><path d="M-93.7 0C-90.3 -3.3 -86.9 -6.6 -94.7 -13.6C-102.4 -20.7 -121.3 -31.5 -116.9 -34.3C-112.6 -37.2 -85 -32 -81.2 -37.1C-77.4 -42.1 -97.4 -57.4 -103.2 -66.3C-108.9 -75.1 -100.3 -77.5 -95.2 -82.5C-90.2 -87.5 -88.7 -95 -80.8 -93.2C-72.9 -91.5 -58.5 -80.4 -53.3 -83C-48.2 -85.6 -52.2 -101.8 -51.1 -111.9C-50 -122 -43.7 -125.8 -37.1 -126.3C-30.4 -126.7 -23.4 -123.8 -17.1 -119.1C-10.9 -114.5 -5.4 -108.3 0 -102L0 0Z" fill="#274775"></path><path d="M-62.5 0C-60.2 -2.2 -57.9 -4.4 -63.1 -9.1C-68.3 -13.8 -80.9 -21 -78 -22.9C-75.1 -24.8 -56.6 -21.3 -54.1 -24.7C-51.6 -28.1 -65 -38.3 -68.8 -44.2C-72.6 -50.1 -66.8 -51.7 -63.5 -55C-60.1 -58.3 -59.1 -63.3 -53.9 -62.2C-48.6 -61 -39 -53.6 -35.5 -55.3C-32.1 -57 -34.8 -67.9 -34.1 -74.6C-33.3 -81.3 -29.2 -83.9 -24.7 -84.2C-20.3 -84.5 -15.6 -82.5 -11.4 -79.4C-7.3 -76.4 -3.6 -72.2 0 -68L0 0Z" fill="#294a7a"></path><path d="M-31.2 0C-30.1 -1.1 -29 -2.2 -31.6 -4.5C-34.1 -6.9 -40.4 -10.5 -39 -11.4C-37.5 -12.4 -28.3 -10.7 -27.1 -12.4C-25.8 -14 -32.5 -19.1 -34.4 -22.1C-36.3 -25 -33.4 -25.8 -31.7 -27.5C-30.1 -29.2 -29.6 -31.7 -26.9 -31.1C-24.3 -30.5 -19.5 -26.8 -17.8 -27.7C-16.1 -28.5 -17.4 -33.9 -17 -37.3C-16.7 -40.7 -14.6 -41.9 -12.4 -42.1C-10.1 -42.2 -7.8 -41.3 -5.7 -39.7C-3.6 -38.2 -1.8 -36.1 0 -34L0 0Z" fill="#2a4c7d"></path></g><g transform="translate(0, 0)"><path d="M297 0C309.9 14.3 322.8 28.6 336.5 48.4C350.2 68.1 364.7 93.3 336.8 98.9C308.9 104.4 238.6 90.4 225.6 103C212.6 115.7 256.9 155.1 251.5 161.7C246.1 168.2 191 141.9 186.7 161.8C182.4 181.6 228.9 247.5 225.9 260.7C222.9 273.9 170.4 234.4 142.7 222.1C115 209.8 112.2 224.6 103 225.6C93.9 226.5 78.4 213.6 69.3 236C60.2 258.5 57.6 316.4 47.1 327.6C36.6 338.9 18.3 303.4 0 268L0 0Z" fill="#1e375a"></path><path d="M259.9 0C271.2 12.5 282.5 25.1 294.5 42.3C306.5 59.6 319.1 81.7 294.7 86.5C270.3 91.4 208.7 79.1 197.4 90.1C186 101.2 224.8 135.7 220.1 141.4C215.4 147.2 167.1 124.2 163.3 141.5C159.6 158.9 200.3 216.6 197.7 228.1C195.1 239.7 149.1 205.1 124.9 194.3C100.7 183.5 98.2 196.6 90.1 197.4C82.1 198.2 68.6 186.9 60.6 206.5C52.7 226.2 50.4 276.8 41.2 286.7C32 296.5 16 265.5 0 234.5L0 0Z" fill="#203a5f"></path><path d="M222.8 0C232.4 10.7 242.1 21.5 252.4 36.3C262.7 51.1 273.5 70 252.6 74.2C231.6 78.3 178.9 67.8 169.2 77.3C159.5 86.8 192.7 116.3 188.7 121.2C184.6 126.2 143.2 106.4 140 121.3C136.8 136.2 171.7 185.6 169.4 195.6C167.2 205.5 127.8 175.8 107 166.6C86.3 157.3 84.1 168.5 77.3 169.2C70.4 169.9 58.8 160.2 52 177C45.2 193.9 43.2 237.3 35.3 245.7C27.5 254.1 13.7 227.6 0 201L0 0Z" fill="#213d64"></path><path d="M185.6 0C193.7 8.9 201.8 17.9 210.3 30.2C218.9 42.6 227.9 58.3 210.5 61.8C193 65.3 149.1 56.5 141 64.4C132.9 72.3 160.6 96.9 157.2 101C153.8 105.1 119.4 88.7 116.7 101.1C114 113.5 143.1 154.7 141.2 163C139.3 171.2 106.5 146.5 89.2 138.8C71.9 131.1 70.1 140.4 64.4 141C58.7 141.6 49 133.5 43.3 147.5C37.6 161.6 36 197.7 29.4 204.8C22.9 211.8 11.4 189.6 0 167.5L0 0Z" fill="#23406a"></path><path d="M148.5 0C155 7.2 161.4 14.3 168.3 24.2C175.1 34.1 182.3 46.7 168.4 49.4C154.4 52.2 119.3 45.2 112.8 51.5C106.3 57.8 128.5 77.5 125.8 80.8C123.1 84.1 95.5 71 93.3 80.9C91.2 90.8 114.5 123.8 113 130.4C111.5 137 85.2 117.2 71.4 111C57.5 104.9 56.1 112.3 51.5 112.8C46.9 113.3 39.2 106.8 34.7 118C30.1 129.2 28.8 158.2 23.6 163.8C18.3 169.4 9.2 151.7 0 134L0 0Z" fill="#25446f"></path><path d="M111.4 0C116.2 5.4 121.1 10.7 126.2 18.1C131.3 25.6 136.8 35 126.3 37.1C115.8 39.2 89.5 33.9 84.6 38.6C79.7 43.4 96.4 58.2 94.3 60.6C92.3 63.1 71.6 53.2 70 60.7C68.4 68.1 85.8 92.8 84.7 97.8C83.6 102.7 63.9 87.9 53.5 83.3C43.1 78.7 42.1 84.2 38.6 84.6C35.2 85 29.4 80.1 26 88.5C22.6 96.9 21.6 118.6 17.7 122.9C13.7 127.1 6.9 113.8 0 100.5L0 0Z" fill="#274775"></path><path d="M74.3 0C77.5 3.6 80.7 7.2 84.1 12.1C87.6 17 91.2 23.3 84.2 24.7C77.2 26.1 59.6 22.6 56.4 25.8C53.2 28.9 64.2 38.8 62.9 40.4C61.5 42.1 47.7 35.5 46.7 40.4C45.6 45.4 57.2 61.9 56.5 65.2C55.7 68.5 42.6 58.6 35.7 55.5C28.8 52.4 28 56.2 25.8 56.4C23.5 56.6 19.6 53.4 17.3 59C15.1 64.6 14.4 79.1 11.8 81.9C9.2 84.7 4.6 75.9 0 67L0 0Z" fill="#294a7a"></path><path d="M37.1 0C38.7 1.8 40.4 3.6 42.1 6C43.8 8.5 45.6 11.7 42.1 12.4C38.6 13.1 29.8 11.3 28.2 12.9C26.6 14.5 32.1 19.4 31.4 20.2C30.8 21 23.9 17.7 23.3 20.2C22.8 22.7 28.6 30.9 28.2 32.6C27.9 34.2 21.3 29.3 17.8 27.8C14.4 26.2 14 28.1 12.9 28.2C11.7 28.3 9.8 26.7 8.7 29.5C7.5 32.3 7.2 39.5 5.9 41C4.6 42.4 2.3 37.9 0 33.5L0 0Z" fill="#2a4c7d"></path></g></svg>